# xmcd
#
# Track frame offsets: 
#        150
#        12104
#        26763
#        43132
#        51240
#        59862
#        72558
#        86592
#        103034
#        116160
#        128208
#        153382
#        165189
#        181098
#        193280
#        213437
#        236021
#        253671
#        268372
#
# Disc length: 3743 seconds
#
# Revision: 0
# Processed by: cddbd v1.5.2PL0 Copyright (c) Steve Scherf et al.
# Submitted via: ExactAudioCopyFreeDBPlugin 1.0
#
DISCID=1e0e9d13
DTITLE=Uroš Perić - Uroš Perič and Friends
DYEAR=2010
DGENRE=Blues
TTITLE0=Let the good times roll
TTITLE1=It takes two to tango
TTITLE2=You dont know me
TTITLE3=Just you just me
TTITLE4=Crying time
TTITLE5=Peope will say we're in love
TTITLE6=You are my sunshine
TTITLE7=Sweet memories
TTITLE8=Don't set me free
TTITLE9=When your over has gone
TTITLE10=The shadows of my mind
TTITLE11=Hallelujah i just love her so
TTITLE12=For all we know
TTITLE13=Breaking news
TTITLE14=Baby it's cold outside
TTITLE15=Heaven help us all
TTITLE16=Over the rinbov
TTITLE17=You and I
TTITLE18=Carry me back to old virginny
EXTD=
EXTT0=
EXTT1=
EXTT2=
EXTT3=
EXTT4=
EXTT5=
EXTT6=
EXTT7=
EXTT8=
EXTT9=
EXTT10=
EXTT11=
EXTT12=
EXTT13=
EXTT14=
EXTT15=
EXTT16=
EXTT17=
EXTT18=
PLAYORDER=
